HIERARCHY
ROOT RootJoint
{
    OFFSET   0.000000   0.000000   0.000000
    CHANNELS 6 Xposition Yposition Zposition Xrotation Yrotation Zrotation
    JOINT pelvis_lowerback
    {
        OFFSET   0.000000   0.093605   0.000000
        CHANNELS 3 Xrotation Yrotation Zrotation
        JOINT lowerback_torso
        {
            OFFSET   0.000000   0.100000   0.000000
            CHANNELS 3 Xrotation Yrotation Zrotation
            JOINT torso_head
            {
                OFFSET   0.000000   0.282350   0.000000
                CHANNELS 3 Xrotation Yrotation Zrotation
                End Site
                {
                    OFFSET   0.000000   0.192650   0.000000
                }
            }
            JOINT rTorso_Clavicle
            {
                OFFSET  -0.001000   0.157500   0.000000
                CHANNELS 3 Xrotation Yrotation Zrotation
                JOINT rShoulder
                {
                    OFFSET  -0.117647   0.000000   0.000000
                    CHANNELS 3 Xrotation Yrotation Zrotation
                    JOINT rElbow
                    {
                        OFFSET  -0.245000   0.000000   0.000000
                        CHANNELS 3 Xrotation Yrotation Zrotation
                        JOINT rWrist
                        {
                            OFFSET  -0.240000   0.000000   0.000000
                            CHANNELS 3 Xrotation Yrotation Zrotation
                            End Site
                            {
                                OFFSET  -0.116353  -0.002500   0.000000
                            }
                        }
                    }
                }
            }
            JOINT lTorso_Clavicle
            {
                OFFSET   0.001000   0.157500   0.000000
                CHANNELS 3 Xrotation Yrotation Zrotation
                JOINT lShoulder
                {
                    OFFSET   0.117647   0.000000   0.000000
                    CHANNELS 3 Xrotation Yrotation Zrotation
                    JOINT lElbow
                    {
                        OFFSET   0.245000   0.000000   0.000000
                        CHANNELS 3 Xrotation Yrotation Zrotation
                        JOINT lWrist
                        {
                            OFFSET   0.240000   0.000000   0.000000
                            CHANNELS 3 Xrotation Yrotation Zrotation
                            End Site
                            {
                                OFFSET   0.116353  -0.002500   0.000000
                            }
                        }
                    }
                }
            }
        }
    }
    JOINT rHip
    {
        OFFSET  -0.100000  -0.051395   0.000000
        CHANNELS 3 Xrotation Yrotation Zrotation
        JOINT rKnee
        {
            OFFSET   0.000000  -0.410000   0.000000
            CHANNELS 3 Xrotation Yrotation Zrotation
            JOINT rAnkle
            {
                OFFSET   0.000000  -0.390000   0.000000
                CHANNELS 3 Xrotation Yrotation Zrotation
                JOINT rToeJoint
                {
                    OFFSET   0.000000  -0.050000   0.130000
                    CHANNELS 3 Xrotation Yrotation Zrotation
                    End Site
                    {
                        OFFSET  -0.010000   0.002000   0.060000
                    }
                }
            }
        }
    }
    JOINT lHip
    {
        OFFSET   0.100000  -0.051395   0.000000
        CHANNELS 3 Xrotation Yrotation Zrotation
        JOINT lKnee
        {
            OFFSET   0.000000  -0.410000   0.000000
            CHANNELS 3 Xrotation Yrotation Zrotation
            JOINT lAnkle
            {
                OFFSET   0.000000  -0.390000   0.000000
                CHANNELS 3 Xrotation Yrotation Zrotation
                JOINT lToeJoint
                {
                    OFFSET   0.000000  -0.050000   0.130000
                    CHANNELS 3 Xrotation Yrotation Zrotation
                    End Site
                    {
                        OFFSET   0.010000   0.002000   0.060000
                    }
                }
            }
        }
    }
}
MOTION
Frames: 15
Frame Time:   0.008333
 -2.376719   0.925631   3.975860   0.000000   0.000000   0.000000   0.000000   0.000000   0.000000   0.000000   0.000000   0.000000   0.000000   0.000000   0.000000   0.000000   0.000000   0.000000   0.000000   0.000000   0.000000   0.000000   0.000000   0.000000   0.000000   0.000000   0.000000   0.000000   0.000000   0.000000   0.000000   0.000000   0.000000   0.000000   0.000000   0.000000   0.000000   0.000000   0.000000   0.000000   0.000000   0.000000   0.000000   0.000000   0.000000   0.000000   0.000000   0.000000   0.000000   0.000000   0.000000   0.000000   0.000000   0.000000   0.000000   0.000000   0.000000   0.000000   0.000000   0.000000   0.000000   0.000000   0.000000
 -2.376957   0.925242   3.975511  -0.522943  -0.431381   0.167687   0.821928   0.016754  -0.311319  -0.054768  -0.105717  -0.110194   0.175771  -0.262890   0.237695  -0.112246  -0.389427  -0.197202   0.091139   0.144989   1.994045   0.049405   3.636893  -0.008298  -0.084816  -1.219870  -1.840269   0.039333   1.070504   0.477121  -0.117955   0.706112  -1.046376   0.026713  -3.731881   0.006022  -0.063855   0.670022   1.144956  -0.237479  -0.031676  -0.532537   2.254151   0.006969  -0.009309  -2.095622   0.156356   0.111685  -0.103779  -0.000237   0.000274  -0.165673  -0.056204   0.178527   2.629493  -0.008236  -0.010965  -1.379036   0.514357  -0.133054   0.145153  -0.000268   0.000032
 -2.377216   0.924576   3.975530  -1.172212  -1.104605   0.307520   1.597595   0.091488  -0.642907   0.004309  -0.109373  -0.201389   0.427396  -0.534688   0.430189  -0.218518  -0.708174   0.045279   0.159444   0.392272   4.212599   0.112951   7.402535  -0.012457  -0.147040  -1.403030  -3.158585   0.074238   2.217235   0.723876  -0.217427   1.412378  -2.192496   0.060352  -7.536007   0.009308  -0.109186   0.513492   2.054753  -0.384805  -0.084352  -1.358770   4.638548   0.018422  -0.023873  -4.047594   0.290846   0.222238  -0.252243  -0.000944   0.000985  -0.141180  -0.100949   0.649342   5.477275  -0.023662  -0.024925  -2.644378   1.004829  -0.242334   0.296603  -0.000918  -0.000248
 -2.377265   0.923522   3.975641  -1.840962  -1.957799   0.373633   2.318261   0.235046  -0.905255   0.067674  -0.027664  -0.243928   0.672790  -0.790930   0.591447  -0.316413  -0.955514   0.553894   0.207545   0.668141   6.495066   0.177524  11.191158  -0.012333  -0.199215  -1.292601  -3.979296   0.108030   3.331758   0.773633  -0.295015   2.101949  -3.395172   0.093425 -11.336054   0.009850  -0.151144   0.239092   2.670188  -0.516080  -0.147679  -2.407800   6.912710   0.031122  -0.040250  -5.864994   0.406175   0.329707  -0.372313  -0.001668   0.001642  -0.117270  -0.255075   1.193467   7.963222  -0.035971  -0.038771  -3.990180   1.315440  -0.418277  -1.783354   0.008271   0.011705
 -2.377110   0.921986   3.975749  -2.564838  -2.861329   0.314824   3.031797   0.397942  -1.057845   0.144598   0.089356  -0.210660   0.901668  -1.030756   0.739081  -0.402976  -1.153363   1.223397   0.240557   0.950434   8.770330   0.236841  14.986931  -0.009491  -0.251591  -1.106997  -4.435276   0.144710   4.382293   0.685688  -0.349079   2.756574  -4.617342   0.122009 -15.132084   0.008910  -0.196110  -0.023132   3.046398  -0.592577  -0.221222  -3.589494   9.047433   0.043298  -0.055105  -7.560502   0.504936   0.431651  -0.478050  -0.002363   0.002157  -0.227140  -0.405550   1.708655  10.092213  -0.042086  -0.047181  -5.307971   1.571042  -0.634581  -2.001250   0.007175   0.010813
 -2.376874   0.920203   3.976040  -3.326124  -3.898027   0.157777   3.691754   0.616582  -1.150183   0.224840   0.259442  -0.111871   1.120309  -1.253001   0.879740  -0.474946  -1.309853   2.020141   0.264101   1.234957  11.015659   0.288263  18.787768  -0.003097  -0.304739  -0.894702  -4.618580   0.187089   5.386320   0.502428  -0.379551   3.385525  -5.828128   0.145028 -18.921516   0.005635  -0.243380  -0.248176   3.262258  -0.649732  -0.288368  -4.886821  11.040048   0.053581  -0.069587  -9.141942   0.591593   0.529164  -0.567309  -0.002912   0.002568  -0.292501  -0.562444   2.158074  12.282246  -0.046018  -0.056726  -6.668871   1.759368  -0.888214  -2.202274   0.005958   0.010331
 -2.376651   0.918275   3.976483  -4.100266  -5.014550  -0.122055   4.288520   0.858927  -1.165919   0.290458   0.458669   0.052222   1.323692  -1.459769   1.013819  -0.530358  -1.440500   2.899518   0.283073   1.511668  13.208247   0.329838  22.589372   0.006497  -0.361762  -0.684426  -4.585252   0.236125   6.343886   0.257329  -0.387733   3.988379  -7.010117   0.161910 -22.704609   0.000446  -0.293993  -0.432150   3.360828  -0.718789  -0.352587  -6.235541  12.888939   0.061438  -0.082340 -10.617359   0.667399   0.621469  -0.642878  -0.003297   0.002847  -0.298161  -0.714483   2.505458  14.414547  -0.046447  -0.065537  -8.029398   1.882319  -1.176399  -2.348607   0.004636   0.009667
 -2.376601   0.915681   3.976926  -4.542198  -6.100233  -0.452904   4.634487   1.004128  -1.134831   0.147534   0.687108   0.239091   1.379705  -1.583757   1.062701  -0.467580  -1.761567   3.647125   0.644929   1.841506  15.277368   0.358712  26.440639   0.006427  -0.353052  -0.291828  -4.212960   0.440137   7.386507   0.158838  -0.475240   4.557615  -8.255291   0.170611 -26.500976  -0.006991  -0.328904  -0.696280   3.373490  -1.188943  -0.535140  -7.583894  14.306472   0.063039  -0.088519 -10.728407   0.596193   0.733465  -0.681825  -0.003145   0.002784  -0.400289  -0.704106   2.968208  16.172348  -0.045849  -0.065890  -9.712740   2.483991  -1.103226  -2.026570   0.002848   0.006464
 -2.376604   0.912709   3.977312  -4.941359  -7.141180  -0.818502   4.958538   1.113552  -1.080945  -0.028525   0.883798   0.432481   1.408557  -1.697499   1.105211  -0.389748  -2.109095   4.350130   0.987596   2.130264  17.209577   0.368907  30.066765   0.010015  -0.334707   0.133924  -3.774187   0.637132   8.392549   0.069450  -0.540715   5.117489  -9.412281   0.173150 -30.287697  -0.013611  -0.366652  -0.916403   3.383383  -1.773495  -0.687319  -8.942032  15.544452   0.062607  -0.090579 -10.819411   0.526179   0.836289  -0.618824  -0.001687   0.001408  -0.446305  -0.729032   3.276932  17.697137  -0.042177  -0.064882 -11.505637   2.924866  -1.136881  -1.733831   0.002283   0.003602
 -2.376875   0.909575   3.977603  -5.348864  -8.054044  -1.212884   5.281410   1.163636  -1.042954  -0.185478   1.022692   0.631748   1.433475  -1.804743   1.149094  -0.299139  -2.468857   5.034194   1.311171   2.384938  19.027450   0.364837  33.442716   0.015054  -0.324134   0.511216  -3.332729   0.822505   9.329551  -0.008787  -0.592028   5.642495 -10.481710   0.172418 -34.070794  -0.018614  -0.404245  -1.102125   3.421042  -2.385506  -0.809148 -10.272754  16.656860   0.060963  -0.089221 -10.905329   0.458741   0.931007  -0.557035  -0.000544   0.000378  -0.459364  -0.705685   3.582032  19.133138  -0.038238  -0.061376 -13.327747   3.409187  -1.136934  -1.467915   0.001848   0.001951
 -2.377582   0.907411   3.978143  -5.895627  -8.879504  -1.501972   5.653662   1.167020  -1.154351  -0.277673   1.107773   0.774949   1.468535  -1.904039   1.186712  -0.190326  -2.822831   5.780091   1.622404   2.617354  20.779907   0.352389  36.584409   0.021613  -0.319572   0.821959  -2.876244   0.991767  10.173941  -0.125416  -0.635412   6.110440 -11.490256   0.171012 -37.611014  -0.022152  -0.432131  -1.356915   3.493750  -2.871481  -0.908294 -11.681284  17.675185   0.058251  -0.086098 -10.983803   0.394238   1.017602  -0.483016   0.000491  -0.000556  -0.590300  -0.518859   3.746570  20.960686  -0.035059  -0.057264 -14.407823   4.010206  -1.095942  -1.249708   0.001353   0.001548
 -2.378748   0.905353   3.978944  -6.465331  -9.658550  -1.910993   5.967700   1.148747  -1.179280  -0.362324   1.160291   0.925976   1.504628  -1.996109   1.216999  -0.068583  -3.176961   6.454949   1.921177   2.826392  22.414036   0.329695  39.511236   0.030905  -0.321961   1.084397  -2.374979   1.155848  10.957070  -0.227452  -0.662999   6.541066 -12.438781   0.165044 -40.922356  -0.026280  -0.458135  -1.641260   3.509528  -3.364842  -0.989224 -12.924943  18.627849   0.054977  -0.082313 -11.059229   0.334609   1.098659  -0.429289   0.001034  -0.001056  -0.602989  -0.334185   4.052001  22.633092  -0.032465  -0.052627 -15.459524   4.572414  -1.002839  -1.025421   0.000790   0.001226
 -2.380295   0.903300   3.979909  -7.042729 -10.382778  -2.372579   6.239358   1.100812  -1.188890  -0.454354   1.178578   1.078102   1.535304  -2.082226   1.248450   0.057842  -3.528471   7.066936   2.202662   3.013319  23.927145   0.299591  42.238212   0.041922  -0.328262   1.307783  -1.898103   1.309454  11.680890  -0.307837  -0.683587   6.938155 -13.314153   0.155671 -44.015872  -0.030580  -0.482430  -1.930265   3.524651  -3.873198  -1.049831 -14.083416  19.510949   0.051453  -0.077921 -11.130779   0.279117   1.174441  -0.386759   0.001317  -0.001313  -0.541616  -0.163164   4.427591  24.187696  -0.030285  -0.047856 -16.480330   5.097562  -0.895519  -0.820212   0.000294   0.000972
 -2.381723   0.901607   3.980858  -7.351186 -11.129422  -2.552209   6.248786   1.060752  -1.332402  -0.522926   1.311108   1.112808   1.510513  -2.075976   1.314601   0.404742  -3.979991   7.487595   2.958068   3.167943  25.331785   0.283309  45.086489   0.031258  -0.325080   1.646440  -1.577116   1.695383  12.328125  -0.307703  -0.392629   7.203412 -14.356848   0.157096 -46.717589  -0.014719  -0.492230  -2.452152   3.685538  -4.693116  -1.141640 -15.321747  20.477529   0.047786  -0.075856 -10.221388   0.014962   1.344304  -0.382688   0.001093  -0.001105  -0.497160   0.132768   4.520247  25.166276  -0.026280  -0.041366 -17.259433   5.541450  -0.411429  -0.545530  -0.000982   0.000767
 -2.383222   0.900112   3.981653  -7.574043 -11.783056  -2.660879   6.255534   0.994800  -1.468152  -0.588608   1.414210   1.100625   1.476004  -2.063575   1.380694   0.767529  -4.466601   7.826614   3.689762   3.283536  26.613324   0.264265  47.738488   0.021979  -0.308783   1.996004  -1.206864   2.078356  12.959309  -0.344542  -0.090502   7.467383 -15.364407   0.158210 -49.226300   0.000612  -0.498137  -2.896212   3.705532  -5.492531  -1.216948 -16.415642  21.391234   0.043179  -0.072086  -9.359986  -0.234825   1.507556  -0.303831   0.001446  -0.001888  -0.467771   0.394034   4.565584  25.939056  -0.022510  -0.035192 -17.910243   5.928892   0.071824  -0.297849  -0.001889   0.000614
